<?xml version="1.0" encoding="utf-8"?>
<!-- Uploaded to: SVG Repo, www.svgrepo.com, Generator: SVG Repo Mixer Tools -->
<svg width="800px" height="800px" viewBox="0 0 1024 1024" class="icon"  version="1.1" xmlns="http://www.w3.org/2000/svg"><path d="M888.104 873.432c0 45-168.08 78.504-378.68 78.504-210.608 0-384-33.504-384-78.504 0-45.008 170.728-81.504 381.336-81.504 210.6 0 381.344 36.496 381.344 81.504z" fill="#B8CBCD" /><path d="M655.328 839.928c-168.76 0-300.952-69.192-300.952-157.52 0-165.944 135.008-300.952 300.952-300.952s300.952 135.008 300.952 300.952c0 88.328-132.192 157.52-300.952 157.52z" fill="#F7BB83" /><path d="M655.328 397.456c157.376 0 284.952 127.576 284.952 284.952 0 78.168-125.056 141.52-284.952 141.52-159.896 0-284.952-63.36-284.952-141.52 0-157.376 127.576-284.952 284.952-284.952m0-32c-174.768 0-316.952 142.184-316.952 316.952 0 98.92 136.256 173.52 316.952 173.52s316.952-74.6 316.952-173.52c0-174.768-142.184-316.952-316.952-316.952z" fill="#6E4123" /><path d="M384.464 722.408a24 24 0 0 1-24-24c0-170.36 138.592-308.952 308.952-308.952a24 24 0 1 1 0 48c-143.888 0-260.952 117.064-260.952 260.952a24 24 0 0 1-24 24z" fill="#FFFFFF" /><path d="M317.92 927.928c-120.472 0-248.496-37.616-248.496-107.336 0-138.216 112.448-250.664 250.664-250.664s250.672 112.448 250.672 250.664c0 69.72-130.272 107.336-252.84 107.336z" fill="#F7BB83" /><path d="M320.088 585.928c129.6 0 234.672 105.064 234.672 234.664 0 50.448-108.432 91.336-236.84 91.336s-232.496-40.888-232.496-91.336c0-129.6 105.056-234.664 234.664-234.664m0-32c-147.04 0-266.664 119.624-266.664 266.664 0 80.968 133.064 123.336 264.496 123.336 133.592 0 268.84-42.368 268.84-123.336 0-147.04-119.632-266.664-266.672-266.664z" fill="#6E4123" /><path d="M81.744 884.048a24 24 0 0 1-24-24c0-166.136 148.248-317.456 311.04-317.456a24 24 0 1 1 0 48c-135.2 0-263.04 130.944-263.04 269.456a24 24 0 0 1-24 24z" fill="#FFFFFF" /><path d="M655.328 397.456c157.376 0 284.952 127.576 284.952 284.952 0 78.168-125.056 141.52-284.952 141.52-35.64 0-69.528-3.168-100.712-8.92 0.04 1.856 0.144 3.712 0.144 5.584 0 50.448-108.432 91.336-236.84 91.336s-232.496-40.888-232.496-91.336c0-129.6 105.064-234.664 234.664-234.664 22.216 0 43.688 3.16 64.056 8.92 36.944-114.52 144.36-197.392 271.184-197.392m0-48c-130.48 0-246.64 75.032-301.04 190.56a281.032 281.032 0 0 0-34.2-2.088c-155.856 0-282.664 126.808-282.664 282.664 0 95.736 145.408 139.336 280.496 139.336 111.816 0 230.576-28.968 270.688-91.512 21.784 2.336 44.096 3.512 66.72 3.512 84.36 0 163.872-16.512 223.888-46.512 70.328-35.144 109.064-85.928 109.064-143.008 0-183.592-149.36-332.952-332.952-332.952z" fill="#6E4123" /><path d="M248.856 705.384a60.568 38.544 0 1 0 121.136 0 60.568 38.544 0 1 0-121.136 0Z" fill="#FFFFFF" /><path d="M309.424 759.928c-42.936 0-76.568-23.96-76.568-54.544 0-30.584 33.632-54.544 76.568-54.544s76.568 23.96 76.568 54.544c0 30.584-33.632 54.544-76.568 54.544z m0-77.096c-25.104 0-44.568 12.12-44.568 22.544 0 10.432 19.472 22.544 44.568 22.544 25.104 0 44.568-12.12 44.568-22.544 0-10.424-19.472-22.544-44.568-22.544z" fill="#6E4123" /><path d="M309.424 714.832a24 24 0 0 1-24-24V221.024a24 24 0 1 1 48 0v469.816a23.992 23.992 0 0 1-24 23.992z" fill="#6E4123" /><path d="M493.424 301.024l-184 82.904V213.024l184 88z" fill="#F6E89A" /><path d="M309.424 407.928a24 24 0 0 1-24-24V213.024a24 24 0 0 1 34.352-21.648l184 88a23.992 23.992 0 0 1-0.496 43.528l-184 82.904a24.048 24.048 0 0 1-9.856 2.12z m24-156.824v95.688l103.016-46.416-103.016-49.272z" fill="#6E4123" /><path d="M629.424 386.016h64v125.912h-64z" fill="#FFFFFF" /><path d="M693.424 527.928h-64a16 16 0 0 1-16-16V386.016a16 16 0 0 1 16-16h64a16 16 0 0 1 16 16v125.912a16 16 0 0 1-16 16z m-48-32h32V402.016h-32v93.912z" fill="#6E4123" /><path d="M814.312 359.368l-0.04-0.08 0.024-0.264h-0.168L677.872 151.928 541.616 359.024h-0.192c0 0.104 0.024 0.2 0.024 0.304l-0.024 0.04h0.032c0.64 22.304 63.392 68.448 138.352 68.448 74.96 0 133.848-46.144 134.464-68.448h0.04z" fill="#B2EDA6" /><path d="M679.8 443.816c-75.888 0-151.472-46.936-154.272-82.68a15.496 15.496 0 0 1-0.104-1.608l-0.008-0.504c0-4.072 1.52-7.792 4.024-10.608l135.064-205.28a16.024 16.024 0 0 1 26.736 0l135.368 205.76a15.8 15.8 0 0 1 3.592 12.008c-2.336 33.176-69.504 82.912-150.4 82.912zM558.768 362.072c8.92 15.28 59.096 49.744 121.04 49.744 64.384 0 108.96-35.2 117.168-49.752L677.872 181.04 558.768 362.072z" fill="#3C663E" /><path d="M785.768 227.968l-0.032-0.064 0.008-0.208h-0.136L677.872 63.928 570.12 227.696h-0.16c0 0.08 0.016 0.16 0.024 0.232l-0.024 0.04h0.032c0.504 17.64 50.128 54.128 109.408 54.128 59.272 0 105.84-36.48 106.312-54.128h0.056z" fill="#B2EDA6" /><path d="M679.408 298.096c-62.584 0-122.64-38.04-125.312-68.24a15.248 15.248 0 0 1-0.12-1.704l-0.008-0.456c0-3.984 1.456-7.624 3.864-10.432L664.504 55.136a16.024 16.024 0 0 1 26.736 0l106.944 162.576c2.216 2.736 3.552 6.2 3.552 9.984v0.184c0 0.608-0.032 1.224-0.104 1.832-2.384 30.504-59.392 68.384-122.224 68.384z m-91.592-68.184c8.976 11.832 45.296 36.176 91.584 36.176 45.488 0 80.296-24.248 88.64-35.984L677.872 93.04 587.816 229.912z" fill="#3C663E" /><path d="M837.424 575.928h-56V478.52l56 1.408z" fill="#FFFFFF" /><path d="M837.424 591.928h-56a16 16 0 0 1-16-16V478.52c0-4.312 1.744-8.448 4.824-11.456a15.6 15.6 0 0 1 11.568-4.536l56 1.408a16 16 0 0 1 15.6 15.992v96c0.008 8.84-7.16 16-15.992 16z m-40-32h24v-64.4l-24-0.6v65z" fill="#6E4123" /><path d="M909.424 452.48l-0.032-0.064 0.016-0.2h-0.136l-105.408-160.2-105.4 160.192h-0.16c0 0.08 0.024 0.16 0.024 0.232l-0.024 0.032h0.024c0.504 17.248 49.04 52.944 107.032 52.944s103.544-35.696 104.016-52.944h0.048z" fill="#B2EDA6" /><path d="M805.368 521.424c-61.488 0-120.512-37.528-122.952-67.248a14.504 14.504 0 0 1-0.096-1.44l-0.008-0.52c0-3.984 1.456-7.624 3.864-10.432l104.32-158.568a16 16 0 0 1 26.736 0l104.616 159.008c2.216 2.744 3.552 6.208 3.552 9.992l-0.016 0.632a17.12 17.12 0 0 1-0.064 1.128c-2.088 30.024-58.168 67.448-119.952 67.448z m-89.16-67.064c8.984 11.536 44.4 35.064 89.16 35.064 44.784 0 78.088-23.232 86.32-34.832L803.864 321.12 716.208 454.36z" fill="#3C663E" /><path d="M887.336 350.824l-0.032-0.048 0.016-0.168h-0.112L803.864 223.92 720.52 350.616h-0.12l0.016 0.176-0.016 0.032h0.024c0.392 13.648 38.776 41.864 84.632 41.864s81.88-28.216 82.248-41.864h0.032z" fill="#B2EDA6" /><path d="M805.056 408.696c-47.36 0-98.224-28.6-100.552-56.112a15.816 15.816 0 0 1-0.096-1.504l-0.008-0.464c0-3.904 1.4-7.488 3.728-10.264l82.376-125.216a16 16 0 0 1 26.736 0l82.624 125.592c2.168 2.728 3.464 6.16 3.464 9.888l-0.008 0.544a17.264 17.264 0 0 1-0.064 1.112c-1.872 25.152-47.712 56.424-98.2 56.424z m-66.32-56.648c8.432 8.96 34.152 24.648 66.32 24.648 31.512 0 56.192-15.576 64.096-24.432l-65.28-99.224-65.136 99.008z" fill="#3C663E" /><path d="M677.872 63.928l107.736 163.768h0.136l-0.008 0.208 0.032 0.064h-0.048c-0.248 9.312-13.424 23.84-34.448 35.512l13.28 20.2 39.312-59.752 83.344 126.688h0.112l-0.016 0.168 0.032 0.048h-0.032c-0.192 7.2-10.392 18.448-26.656 27.48l48.624 73.904h0.136l-0.016 0.2 0.032 0.064h-0.04c-0.472 17.248-46.024 52.944-104.016 52.944-57.992 0-106.528-35.696-107.032-52.944h-0.024l0.024-0.032c0-0.08-0.024-0.16-0.024-0.232h0.16l18.592-28.264a186.184 186.184 0 0 1-37.256 3.864c-74.96 0-137.712-46.144-138.352-68.448h-0.032l0.024-0.04c0-0.104-0.024-0.2-0.024-0.304h0.192l63.288-96.184c-21.136-11.56-34.648-25.728-34.904-34.864h-0.032l0.024-0.04-0.024-0.232h0.16L677.872 63.928m231.536 388.28h0.04M677.872 31.928a32.008 32.008 0 0 0-26.736 14.416L544.632 208.224a31.744 31.744 0 0 0-6.6 21.472l0.072 0.984c1.136 16.096 11.16 29.76 23.032 40.472l-44.872 68.2a31.664 31.664 0 0 0-6.68 22.872c3.432 45.248 81.008 92.312 157.424 97.168 7.296 39.592 73.968 78.024 138.376 78.024 66.008 0 131.896-39.84 135.832-81.288a38.656 38.656 0 0 0 0.232-3.92 31.84 31.84 0 0 0-6.992-19.968l-30.816-46.832c7.928-8.464 14.448-18.984 15.52-31.232 0.168-1.512 0.208-3.04 0.16-4.56a31.856 31.856 0 0 0-6.664-18.56l-82.04-124.704a32 32 0 0 0-30.104-14.24L704.608 46.344a32 32 0 0 0-26.736-14.416z" fill="#3C663E" /></svg>